# File created by Blade
# Date/Time:  Fri Jan 16 19:49:56 2015
# Frame Rate: 120.000 fps
#------------------------------------------------------
:FULLY-SPECIFIED
:DEGREES
149
root 19.636936 35.333698 -21.577140 -171.970451 -0.661601 -178.671297
Spine -10.461254 -2.096766 1.226527
Head 10.527487 -0.457183 3.581506
LeftShoulder -18.233666 -3.580881 4.142277
LeftArm -54.148146 28.430547 -117.222125
LeftForeArm -0.121340 -0.000000 12.289466
LeftHand -0.690178 -0.000000 -37.602429
LeftHandThumb1 -26.253704 0.000000 33.147579
RightShoulder -22.464322 -32.018531 8.625207
RightArm -8.645001 -32.850161 89.511428
RightForeArm -23.014300 0.000000 11.976767
RightHand 0.592663 0.000000 36.662767
RightHandThumb1 -24.326973 -0.000000 -32.862282
LeftUpLeg 0.820979 8.268897 3.732505
LeftLeg -6.244833 -0.000000 0.000000
LeftFoot -21.066770 30.444127 -12.053825
LeftToeBase 27.252606 -0.000000 -0.000000
RightUpLeg -0.058341 -8.508022 -2.366504
RightLeg -2.691656 -0.000000 0.000000
RightFoot -21.458175 -19.576564 17.705472
RightToeBase 24.741945 -0.000000 -0.000000
150
root 19.636474 35.334778 -21.573352 -171.976522 -0.722455 -178.671565
Spine -10.373785 -2.203186 1.240875
Head 10.623195 -0.373046 3.605395
LeftShoulder -17.966855 -3.813885 4.109328
LeftArm -54.369301 28.365651 -117.253421
LeftForeArm -1.122015 -0.000000 11.937081
LeftHand -0.758541 0.000000 -38.485491
LeftHandThumb1 -26.253704 0.000000 33.147579
RightShoulder -22.278541 -31.993644 8.578947
RightArm -8.834126 -33.421841 89.484504
RightForeArm -22.808718 0.000000 12.329377
RightHand 0.821617 -0.000000 37.609877
RightHandThumb1 -24.326973 -0.000000 -32.862282
LeftUpLeg 0.808257 8.268659 3.736358
LeftLeg -6.247111 -0.000000 0.000000
LeftFoot -21.051559 30.396431 -12.044757
LeftToeBase 27.276238 -0.000000 -0.000000
RightUpLeg -0.056885 -8.515516 -2.362028
RightLeg -2.670490 -0.000000 0.000000
RightFoot -21.488669 -19.607968 17.762033
RightToeBase 24.908330 -0.000000 -0.000000
151
root 19.636613 35.334826 -21.568221 -171.972116 -0.775428 -178.677418
Spine -10.285690 -2.315050 1.236081
Head 10.693343 -0.303407 3.656112
LeftShoulder -17.692134 -3.977370 4.074617
LeftArm -54.474701 28.271986 -117.093620
LeftForeArm -2.253056 -0.000000 11.692760
LeftHand -0.918808 -0.000000 -39.728233
LeftHandThumb1 -26.253704 0.000000 33.147579
RightShoulder -22.138166 -31.972920 8.554723
RightArm -8.960310 -34.137950 89.388388
RightForeArm -22.583817 -0.000000 12.755291
RightHand 0.975499 -0.000000 38.686578
RightHandThumb1 -24.326973 -0.000000 -32.862282
LeftUpLeg 0.785872 8.245411 3.732857
LeftLeg -6.252660 -0.000000 0.000000
LeftFoot -21.021250 30.385828 -12.019206
LeftToeBase 27.257769 -0.000000 -0.000000
RightUpLeg -0.067199 -8.534363 -2.360383
RightLeg -2.658664 -0.000000 0.000000
RightFoot -21.486269 -19.633750 17.739790
RightToeBase 24.761773 -0.000000 -0.000000
152
root 19.635334 35.334447 -21.561765 -171.944621 -0.824795 -178.677487
Spine -10.228458 -2.439126 1.245854
Head 10.773492 -0.230341 3.717990
LeftShoulder -17.402598 -4.079838 4.054565
LeftArm -54.557138 28.175071 -116.974546
LeftForeArm -2.998821 -0.000000 11.636149
LeftHand -1.449255 -0.000000 -40.695702
LeftHandThumb1 -26.253704 0.000000 33.147579
RightShoulder -21.964748 -31.963894 8.465444
RightArm -9.017841 -34.650275 89.272630
RightForeArm -22.588732 -0.000000 13.119619
RightHand 1.061149 -0.000000 39.781852
RightHandThumb1 -24.326973 -0.000000 -32.862282
LeftUpLeg 0.744063 8.236995 3.728957
LeftLeg -6.262593 -0.000000 0.000000
LeftFoot -20.996326 30.357052 -11.983490
LeftToeBase 27.252375 -0.000000 -0.000000
RightUpLeg -0.106338 -8.546403 -2.353045
RightLeg -2.637311 -0.000000 0.000000
RightFoot -21.532055 -19.645102 17.787090
RightToeBase 24.809526 -0.000000 -0.000000
153
root 19.634528 35.334171 -21.554703 -171.919347 -0.871201 -178.677931
Spine -10.170920 -2.585107 1.254057
Head 10.854970 -0.098032 3.741842
LeftShoulder -17.129107 -4.151670 4.110188
LeftArm -54.550044 28.081899 -116.872666
LeftForeArm -3.729360 -0.000000 11.561795
LeftHand -1.804934 0.000000 -41.346821
LeftHandThumb1 -26.253704 0.000000 33.147579
RightShoulder -21.789701 -31.937150 8.309467
RightArm -8.973191 -35.121853 89.133721
RightForeArm -22.561063 0.000000 13.309988
RightHand 1.064399 0.000000 40.904182
RightHandThumb1 -24.326973 -0.000000 -32.862282
LeftUpLeg 0.696242 8.236385 3.723373
LeftLeg -6.262651 -0.000000 0.000000
LeftFoot -20.985372 30.340459 -11.947086
LeftToeBase 27.285294 -0.000000 -0.000000
RightUpLeg -0.132084 -8.552600 -2.343499
RightLeg -2.647443 -0.000000 0.000000
RightFoot -21.523736 -19.694726 17.779653
RightToeBase 24.787414 -0.000000 -0.000000
